# xmcd
#
# Track frame offsets:
#	150
#	14368
#	30512
#	44910
#	60795
#	76077
#	86301
#	96019
#	107432
#	123881
#	143397
#	160787
#	178831
#	194184
#	208660
#	226140
#
# Disc length: 3216 seconds
#
# Revision: 2
# Processed by: cddbd v1.5.2PL0 Copyright (c) Steve Scherf et al.
# Submitted via: audiograbber 1.83.01
#
DISCID=c00c8e10
DTITLE=Various Artist - The Winners 2009 [Disc 2]
DYEAR=2008
DGENRE=Country
TTITLE0=Adam Brand - Get On Down The Road
TTITLE1=The Flood - Can't Work No Longer
TTITLE2=Ted Egan - The Last Of The Packhorse Bagmen
TTITLE3=8 Ball Aitken - Cyclone Country
TTITLE4=Talia Wittmann - The Reckless Side Of Me
TTITLE5=Davidson Brothers with Trev Warner - Blue Mountain Home
TTITLE6=Peter Denahy - Sort Of Dunno Nothin'
TTITLE7=The Road Cases - Raisin' The Dickens
TTITLE8=Sara Storer - Long Live The Girls
TTITLE9=Matt Manning - The Saddle
TTITLE10=The McClymonts - Finally Over Blue
TTITLE11=Graham Rodger - A Saddle For A Throne
TTITLE12=Drew McAlister - Somewhere, Somehow
TTITLE13=John Williamson with Warren H. Williams and Amos Morris - Australia Is A
TTITLE13=nother Word For Free
TTITLE14=Smoky Dawson - Homestead Of My Dreams
TTITLE15=Melinda Schneider and Paul Kelly - Still Here
EXTD=YEAR: 2008
EXTT0=
EXTT1=
EXTT2=
EXTT3=
EXTT4=
EXTT5=
EXTT6=
EXTT7=
EXTT8=
EXTT9=
EXTT10=
EXTT11=
EXTT12=
EXTT13=
EXTT14=
EXTT15=
PLAYORDER=
